HIERARCHY
ROOT Hips
{
  OFFSET 0 89.5177 0.535
  CHANNELS 6 Xposition Yposition Zposition Zrotation Xrotation Yrotation
  JOINT Spine
  {
    OFFSET 12.0259 -0.162855 1.69034e-005
    CHANNELS 3 Zrotation Xrotation Yrotation
    JOINT Spine1
    {
      OFFSET 15.3169 -0.0121922 0
      CHANNELS 3 Zrotation Xrotation Yrotation
      JOINT Spine2
      {
        OFFSET 15.3176 -0.0121908 0
        CHANNELS 3 Zrotation Xrotation Yrotation
        JOINT Neck
        {
          OFFSET 19.9142 1.56338 0
          CHANNELS 3 Zrotation Xrotation Yrotation
          JOINT Head
          {
            OFFSET 6.92651 0 0
            CHANNELS 3 Zrotation Xrotation Yrotation
            End Site
            {
              OFFSET 20.7666 0 0
            }
          }
          JOINT LeftShoulder
          {
            OFFSET -6.20654 0.708824 7.28219
            CHANNELS 3 Zrotation Xrotation Yrotation
            JOINT LeftArm
            {
              OFFSET 14.108 0 -1.52588e-005
              CHANNELS 3 Zrotation Xrotation Yrotation
              JOINT LeftForeArm
              {
                OFFSET 28.5802 0 0
                CHANNELS 3 Zrotation Xrotation Yrotation
                JOINT LeftHand
                {
                  OFFSET 27.092 0 0
                  CHANNELS 3 Zrotation Xrotation Yrotation
                  End Site
                  {
                    OFFSET 9.55928 -0.186424 0.145352
                  }
                }
              }
            }
          }
          JOINT RightShoulder
          {
            OFFSET -6.20654 0.708866 -7.28218
            CHANNELS 3 Zrotation Xrotation Yrotation
            JOINT RightArm
            {
              OFFSET 14.108 0 1.52588e-005
              CHANNELS 3 Zrotation Xrotation Yrotation
              JOINT RightForeArm
              {
                OFFSET 28.5802 0 0
                CHANNELS 3 Zrotation Xrotation Yrotation
                JOINT RightHand
                {
                  OFFSET 27.092 0 0
                  CHANNELS 3 Zrotation Xrotation Yrotation
                  End Site
                  {
                    OFFSET 9.55929 -0.186417 -0.145354
                  }
                }
              }
            }
          }
        }
      }
    }
  }
  JOINT LeftUpLeg
  {
    OFFSET 0.005 -0.535 8.837
    CHANNELS 3 Zrotation Xrotation Yrotation
    JOINT LeftLeg
    {
      OFFSET 39.9035 0 0
      CHANNELS 3 Zrotation Xrotation Yrotation
      JOINT LeftFoot
      {
        OFFSET 39.6689 0 0
        CHANNELS 3 Zrotation Xrotation Yrotation
        JOINT LeftToe
        {
          OFFSET 10.1624 13.6296 0
          CHANNELS 3 Zrotation Xrotation Yrotation
          End Site
          {
            OFFSET 8.38147 0 0
          }
        }
      }
    }
  }
  JOINT RightUpLeg
  {
    OFFSET 0.005 -0.535 -8.837
    CHANNELS 3 Zrotation Xrotation Yrotation
    JOINT RightLeg
    {
      OFFSET 39.9035 0 0
      CHANNELS 3 Zrotation Xrotation Yrotation
      JOINT RightFoot
      {
        OFFSET 39.6689 0 0
        CHANNELS 3 Zrotation Xrotation Yrotation
        JOINT RightToe
        {
          OFFSET 10.1624 13.6296 0
          CHANNELS 3 Zrotation Xrotation Yrotation
          End Site
          {
            OFFSET 8.38147 0 0
          }
        }
      }
    }
  }
}
MOTION
Frames:	9
Frame Time:	0.0333333
118.214 83.6709 25.6504 -104.118 -23.8006 177.761 3.23177 -1.87459 0.315189 6.47896 -3.72789 0.736392 6.47896 -3.72789 0.736383 -8.30231e-012 -9.0191e-006 -5.27751e-005 -44.0838 -13.2886 -1.81864 -178.62 -4.05791 -71.1969 10.6517 -4.18498 36.0433 -17.777 -6.36111e-015 9.54166e-015 -31.7483 -33.2643 -34.9923 -179.247 2.08256 70.1213 38.5433 4.16145 -55.8501 -13.9207 0 -3.18055e-015 -42.0101 34.9963 42.4809 -5.50335 0.994327 179.116 -29.0542 -6.36111e-015 -3.18055e-015 31.1896 11.9793 -12.1472 90 3.18055e-015 -0 -64.5822 -21.5991 158.139 -64.7819 0 -0 -3.33246 -10.1949 8.17222 90 0 -1.59028e-015 
121.229 82.2809 25.6306 -104.91 -22.3723 177.897 3.39963 -2.01021 0.321313 6.81674 -3.99729 0.762247 6.81674 -3.99729 0.762237 -8.30669e-012 -9.0191e-006 -5.27751e-005 -47.0168 -12.8594 -1.55783 -178.913 -3.14092 -70.903 13.7492 -6.74774 36.9283 -13.9792 -6.36111e-015 -6.36111e-015 -35.4292 -30.3741 -37.2588 -179.247 2.07271 70.0247 40.2302 4.96173 -55.832 -13.847 9.54166e-015 -0 -44.0092 34.9477 44.6409 -3.54465 2.28721 179.478 -28.5026 3.18055e-015 4.77083e-015 33.4011 11.6528 -11.2316 90 1.59028e-015 -0 -67.3857 -23.1031 157.023 -52.8607 -3.18056e-015 -0 -1.39835 -10.8596 12.1541 90 -3.18055e-015 -3.97569e-016 
125.078 81.6914 25.4177 -106.039 -20.4065 177.245 3.28797 -2.1259 0.61405 6.60527 -4.21243 1.3507 6.60527 -4.21243 1.35069 -8.3044e-012 -9.0191e-006 -5.27751e-005 -48.3406 -10.6284 -2.14056 -179.354 -1.77499 -70.0059 18.3881 -10.1542 39.7862 -8.79406 -9.54166e-015 -0 -38.9176 -26.3153 -39.3036 -179.253 2.10963 70.5065 40.2516 4.86353 -55.6358 -13.5224 -1.27222e-014 3.18055e-015 -44.4295 34.0456 44.567 1.21739 2.13596 179.808 -22.3362 -6.36111e-015 -1.59028e-015 31.6798 9.94668 -7.9137 90 1.59028e-015 -0 -66.7001 -28.4082 158.384 -36.1711 0 1.59028e-015 3.23581 -10.9942 12.5635 90 3.18055e-015 -0 
129.948 81.6267 25.2466 -107.367 -18.1946 176.163 2.97443 -2.31954 1.019 5.99692 -4.58214 2.15992 5.99692 -4.58214 2.15991 -8.29772e-012 -9.0191e-006 -5.27751e-005 -47.7529 -7.78636 -1.82514 -179.72 -0.730879 -69.0327 21.6462 -10.6362 43.5492 -4.67951 -3.18055e-015 -3.18055e-015 -40.9948 -25.1775 -41.5652 -179.163 2.35191 70.3972 39.0266 4.83393 -55.0259 -13.8833 6.36111e-015 3.18055e-015 -43.8117 33.0324 42.9435 6.04037 0.863379 -179.569 -16.2315 -3.18055e-015 1.59028e-015 26.0365 7.9681 -1.9836 90 7.95139e-016 -0 -63.9348 -32.6233 162.48 -24.6954 0 -7.95139e-016 5.46549 -5.03898 5.10946 90 -1.59028e-015 3.18055e-015 
135.523 81.8669 24.9582 -108.709 -15.4386 175.846 2.5375 -2.55481 1.30737 5.14024 -5.04797 2.73093 5.14024 -5.04797 2.73092 -8.29939e-012 -9.0191e-006 -5.27751e-005 -46.7181 -4.31451 -0.777855 179.859 0.356382 -68.3554 21.3142 -6.7447 48.0152 -2.23746 0 -3.18055e-015 -42.4655 -27.6609 -45.607 -178.971 2.82259 69.968 36.3662 5.49058 -54.3777 -13.9976 -6.36111e-015 -6.36111e-015 -44.0328 32.2348 42.1155 8.01697 0.964486 -179.065 -15.9148 0 -1.59028e-015 19.5867 8.07834 0.21884 90 0 -4.77083e-015 -62.2313 -29.8931 166.677 -27.777 0 -0 7.23143 -0.341861 -2.05585 90 -1.98785e-015 -3.18055e-015 
141.718 82.4612 24.6914 -109.966 -13.1422 175.448 2.04369 -2.92701 1.64474 4.1788 -5.79166 3.39977 4.1788 -5.79166 3.39976 -8.30523e-012 -9.0191e-006 -5.27751e-005 -45.5747 -0.161258 0.697268 179.139 2.16981 -68.3539 19.2007 -2.24197 54.0042 -1.59716 6.36111e-015 -0 -44.2587 -29.4276 -49.1367 -178.642 3.59255 69.2806 32.3494 7.55245 -53.6047 -13.0796 -3.18055e-015 -1.59028e-015 -43.6874 32.0204 41.5356 7.52561 0.882997 -178.098 -19.6406 3.18055e-015 -1.59028e-015 11.1248 10.6145 1.5777 90 0 7.95139e-016 -60.3419 -26.8539 170.235 -35.0043 3.18056e-015 3.18056e-015 8.87718 -2.32375 -1.50365 90 3.18055e-015 3.18055e-015 
147.717 83.1531 24.447 -110.151 -9.6368 175.981 1.86794 -3.11486 1.84162 3.8437 -6.16576 3.79252 3.8437 -6.16576 3.79251 -8.3039e-012 -9.0191e-006 -5.27751e-005 -45.7337 4.96728 2.69759 178.076 4.99901 -68.919 14.5467 -1.26584 60.7071 -0.67221 -1.59028e-015 -3.18055e-015 -45.8585 -29.6134 -51.1237 -178.792 3.1529 69.0298 29.2439 12.3143 -53.9006 -10.873 6.36111e-015 -0 -44.2879 31.7226 42.0498 2.34409 -0.352535 -177.917 -31.2182 0 1.59028e-015 -1.04884 12.4031 -1.60961 90 1.59028e-015 2.38542e-015 -56.1263 -23.056 174 -35.8045 4.77083e-015 1.59028e-015 6.83431 -0.0420894 -0.451019 90 -7.95139e-016 1.59028e-015 
153.46 83.7656 24.3671 -109.403 -5.54396 176.764 1.97512 -3.24851 2.00898 4.07292 -6.42316 4.13903 4.07292 -6.42316 4.13902 -8.31006e-012 -9.0191e-006 -5.27751e-005 -47.2549 9.6139 5.11888 177.566 6.70147 -69.9885 3.1986 -5.4797 64.8643 -0.737042 3.18055e-015 -3.18055e-015 -46.6763 -30.7601 -53.1299 -179.529 1.26104 69.5276 26.8008 18.8377 -55.6722 -9.19006 -9.54166e-015 -6.36111e-015 -45.4654 30.6926 43.0791 -3.1324 -1.31597 -177.467 -38.3586 -3.97569e-016 -0 -20.3872 15.1495 -15.3219 90 3.18055e-015 -0 -52.1345 -20.6516 177.014 -38.4312 1.59028e-015 -0 10.2925 -1.00807 1.11559 90 1.59028e-015 3.18055e-015 
159.127 84.4718 24.4819 -108.36 -2.38197 176.52 2.03317 -3.31497 2.37222 4.21262 -6.5401 4.87305 4.21262 -6.5401 4.87304 -8.30311e-012 -9.0191e-006 -5.27751e-005 -46.4575 13.3472 5.78105 177.799 6.3555 -70.8506 -5.12773 -18.7428 63.7686 -0.639851 -3.18055e-015 -7.95139e-016 -48.5133 -27.5081 -51.4726 179.982 -0.052693 70.9391 24.1905 23.8406 -58.7364 -12.0837 -1.27222e-014 -1.59028e-015 -44.8048 30.019 41.592 -9.5734 -0.738127 -176.28 -49.372 0 -1.98785e-016 -10.326 19.8165 -22.8362 90 -3.18055e-015 3.18055e-015 -46.6196 -20.4713 179.549 -38.8316 -3.18056e-015 -0 13.5075 -2.84738 3.21595 90 0 1.59028e-015 
